<?xml version="1.0" standalone="no"?>
<!DOCTYPE svg PUBLIC "-//W3C//DTD SVG 20010904//EN"
 "http://www.w3.org/TR/2001/REC-SVG-20010904/DTD/svg10.dtd">
<svg version="1.0" xmlns="http://www.w3.org/2000/svg"
 width="32.000000pt" height="32.000000pt" viewBox="0 0 32.000000 32.000000"
 preserveAspectRatio="xMidYMid meet">

<g transform="translate(0.000000,32.000000) scale(0.100000,-0.100000)"
fill="#000000" stroke="none">
<path d="M0 160 l0 -160 160 0 160 0 0 160 0 160 -160 0 -160 0 0 -160z m218
23 l3 -52 -48 2 c-40 2 -50 6 -62 28 -13 24 -13 29 3 53 14 23 23 26 59 24
l42 -3 3 -52z m-73 -73 c4 -6 16 -8 27 -4 15 4 19 2 16 -7 -9 -29 -78 -18 -78
12 0 12 27 11 35 -1z"/>
<path d="M145 207 c-23 -17 -14 -47 15 -47 26 0 37 27 18 46 -12 12 -17 12
-33 1z"/>
</g>
</svg>
