<?xml version="1.0" standalone="no"?>
<!DOCTYPE svg PUBLIC "-//W3C//DTD SVG 20010904//EN"
 "http://www.w3.org/TR/2001/REC-SVG-20010904/DTD/svg10.dtd">
<svg version="1.0" xmlns="http://www.w3.org/2000/svg"
 width="700.000000pt" height="700.000000pt" viewBox="0 0 700.000000 700.000000"
 preserveAspectRatio="xMidYMid meet">
<metadata>
Created by potrace 1.14, written by Peter Selinger 2001-2017
</metadata>
<g transform="translate(0.000000,700.000000) scale(0.100000,-0.100000)"
fill="#000000" stroke="none">
<path d="M142 6974 c-57 -28 -96 -69 -123 -129 -18 -38 -19 -168 -19 -3345 0
-3177 1 -3307 19 -3345 27 -60 66 -101 123 -129 l52 -26 3306 0 3306 0 52 26
c57 28 96 69 123 129 18 38 19 168 19 3346 l0 3305 -26 52 c-28 57 -69 96
-129 123 -38 18 -168 19 -3346 19 l-3305 0 -52 -26z m3508 -1751 c204 -41 387
-155 507 -318 l22 -30 0 153 1 152 270 0 270 0 0 -1160 0 -1160 -270 0 -270 0
-2 192 -3 192 -29 -45 c-108 -164 -304 -294 -511 -340 -76 -17 -328 -17 -415
0 -158 31 -342 107 -454 188 -70 51 -189 167 -240 233 -302 393 -327 1008 -59
1438 245 395 722 598 1183 505z m490 -2947 l0 -364 -82 -35 c-200 -85 -373
-120 -598 -120 -367 1 -656 109 -867 325 -114 115 -172 206 -223 347 -17 45
-30 84 -30 86 0 3 141 5 313 5 l312 -1 35 -55 c68 -108 224 -205 384 -240 283
-61 616 103 727 360 13 31 25 56 27 56 1 0 2 -164 2 -364z"/>
<path d="M3375 4736 c-100 -20 -175 -51 -260 -107 -188 -126 -295 -334 -295
-576 0 -134 20 -225 77 -342 82 -172 239 -298 433 -348 87 -22 263 -22 350 0
122 32 207 82 301 176 138 139 199 292 199 496 0 287 -146 541 -373 648 -118
57 -300 79 -432 53z"/>
</g>
</svg>
