<?xml version="1.0" encoding="utf-8"?>
<!-- Generator: Adobe Illustrator 26.0.1, SVG Export Plug-In . SVG Version: 6.00 Build 0)  -->
<svg version="1.1" id="image" xmlns="http://www.w3.org/2000/svg" xmlns:xlink="http://www.w3.org/1999/xlink" x="0px" y="0px"
	 viewBox="0 0 3396.4943848 1024" style="enable-background:new 0 0 3396.4943848 1024;" xml:space="preserve">
<style type="text/css">
	
		.st0{fill:url(#gradient_00000111182560297184732440000009231452341196333196_);stroke:#FFFFFF;stroke-width:39;stroke-miterlimit:10;}
	.st1{fill:#FFFFFF;}
	.st2{fill:#24408E;}
</style>
<g id="background" transform="translate(31.329708,31.165678)">
	
		<radialGradient id="gradient_00000033363398431986988810000004520792673757283250_" cx="300.7894592" cy="735.4382935" r="153.0845947" gradientTransform="matrix(3.2171752 0 0 -3.2171755 -487.0220947 2846.8684082)" gradientUnits="userSpaceOnUse">
		<stop  offset="0" style="stop-color:#243F8E"/>
		<stop  offset="1" style="stop-color:#24003C"/>
	</radialGradient>
	
		<path id="gradient" style="fill:url(#gradient_00000033363398431986988810000004520792673757283250_);stroke:#FFFFFF;stroke-width:39;stroke-miterlimit:10;" d="
		M24.3667946-11.665678h912.6069946c19.9906616,0,36.1964722,16.2055798,36.1964722,36.1963997v912.6069946
		c0,19.9906006-16.2055664,36.1966553-36.1964111,36.1966553h-0.000061H24.3667946
		c-19.990818,0-36.1965027-16.2058105-36.1965027-36.1966553c0,0,0,0,0.0000525,0V24.5307217
		C-11.8296032,4.5399017,4.3760276-11.665678,24.3667946-11.665678z"/>
</g>
<path id="symbol" class="st1" d="M433.771637,654.5791016h-92.1904602C353.7177124,706.1340942,403.4471741,768,507.1656189,768
	c37.5252991,0,70.9937439-9.2629395,98.4784851-23.7659912V634.7008057
	c-14.2663574,43.8809814-55.3074951,65.3818359-93.6441345,65.3818359c-9.7024536,0-27.2818604-2.434021-43.6780396-11.5280151
	C453.7850952,681.2862549,441.0400391,669.7581787,433.771637,654.5791016 M611.4926147,434.9379883
	c-0.6085205,28.4989014-10.9194946,53.3805237-28.4989624,70.9599609
	c-17.5794067,18.1879272-41.2439575,28.5327148-70.9599609,28.5327148c-57.6062927,0-99.4588318-44.2865906-99.4588318-102.5014038
	v-0.60849c0-59.4319153,45.5036316-101.2843628,99.4588318-101.2843628c34.5841064,0,59.4319458,13.3535767,75.2195435,33.3670349
	C603.6156616,382.7744751,611.4926147,409.4816895,611.4926147,434.9379883 M690.4985352,605.7624512
	c0.2703857-5.8147583,0.4395142-40.1621704,0.4395142-46.4840088V265.7024536h-80.053894v44.8950806
	C592.0877075,277.8389893,550.84375,256,502.9060669,256c-92.1904602,0-169.8440857,69.1343689-169.8440857,177.7210083
	c0,102.5014648,74.0025024,175.2869263,169.8440857,175.2869263c56.4230957,0,91.5819092-29.7159424,107.9780884-59.4318848
	v56.1864624h79.6143799V605.7624512z"/>
<path class="st2" d="M1573.333374,546.2619019c0,34.7088623-15.7995605,59.7664185-47.2197266,75.1011963
	c-18.0513916,9.0792847-37.8543701,13.8692627-57.979126,13.8692627c-16.4071045,0-30.5622559-4.7541504-42.4655762-14.1552734
	c-11.9031982-9.401062-18.0157471-22.3408813-18.0157471-38.6051025c0-21.4472656,8.793335-37.2467041,26.380127-47.0767212
	c10.4377441-5.9694824,25.7724609-10.2947388,46.3260498-12.975647l34.2799072-4.4681396
	c10.7236328-1.3583374,21.4472656-3.4315796,32.0279541-6.2554626c9.401001-2.2519836,18.3374023-5.9694824,26.6660156-11.0453491
	v45.6112366H1573.333374z M1647.2550049,678.4485474c6.7200928-1.1795044,13.5474854-2.8239136,20.1246338-4.789856v-41.8579712
	c-3.5744629,0.7507324-7.0061035,1.1796265-10.1158447,1.5013428c-3.1456299,0.2859497-5.9696045,0.4647217-8.5074463,0.4647217
	c-7.7568359,0-12.8326416-1.7872925-15.1918945-5.3618164c-2.3591309-3.574585-3.5744629-8.3644409-3.5744629-14.1552734V419.937439
	c0-31.8849487-12.2249756-55.4411926-36.8178711-70.6329956c-24.7358398-15.0488586-56.9423828-22.6625977-96.5484619-22.6625977
	c-34.1368408,0-64.2346191,8.1856689-90.1500244,24.4498596s-39.355835,45.2894897-40.392334,87.0401917h52.9031982
	c2.0732422-17.586731,6.5413818-30.8483276,13.5476074-39.6416931
	c12.3679199-16.0854492,33.3862305-24.1281738,62.8762207-24.1281738c25.6295166,0,45.3251953,4.4681702,59.0157471,13.1185913
	c13.7263184,8.6503906,20.5537109,22.805603,20.5537109,42.1796265c0,9.5440369-1.1795654,16.8361511-3.7175293,21.9119873
	c-4.4682617,9.2580566-13.2615967,14.7628784-26.2371826,16.407135l-90.2930908,11.3313293
	c-31.7419434,3.8605042-57.3713379,14.4411316-76.8884277,31.7419739
	c-19.5170898,17.3007812-29.3470459,41.4289551-29.3470459,72.7420044c0,28.4534302,9.6870117,52.2955933,29.5257568,71.2406616
	c19.8029785,18.9450684,45.4324951,28.4533691,76.7454834,28.4533691
	c24.8787842,0.2858887,49.3287354-5.5048218,71.5267334-16.6931763
	c21.6259766-11.0095825,38.3190918-24.1281738,49.7576904-39.3200073
	c1.9302979,13.404541,5.2188721,23.8422852,9.8299561,31.1342773c8.793457,13.8692627,22.9487305,20.8753052,42.4656982,20.8753052
	C1634.7440186,679.4852295,1640.9995117,679.1992798,1647.2550049,678.4485474 M1724.6080322,672.0502319h56.7637939V209.1823273
	h-56.7637939V672.0502319z M1867.9475098,672.0502319h56.7637939V209.1823273h-56.7637939V672.0502319z M2229.9414062,502.0090637
	c0,27.7027283-4.611084,51.8666687-13.8691406,72.7420349c-16.5500488,36.8178101-45.0036621,55.1194458-85.5388184,55.1194458
	c-25.7724609,0-46.5048828-9.9729004-61.8395996-29.8116455c-15.3706055-19.8029785-23.0916748-48.7210693-23.0916748-86.7542725
	c0-32.4925842,3.8604736-58.5510559,11.6173096-78.5327454c14.619873-37.3897705,41.7148438-56.0488586,81.5354004-56.0488586
	c26.5229492,0,48.4350586,10.1517029,65.5571289,30.2406921
	C2221.434082,429.1240845,2230.0847168,460.151123,2229.9414062,502.0090637 M2263.4707031,746.1148071
	c12.6538086-24.7359009,18.9450684-58.586731,18.9450684-101.4813232V337.7944946h-52.3312988v42.6085815
	c-11.0097656-14.1552124-21.9121094-24.8788452-32.6357422-32.2066345
	c-19.6599121-13.1185608-42.7871094-19.5170288-68.8457031-19.6600037c-38.8911133,0-72.1342773,15.7994995-99.6940918,47.5414734
	s-41.2860107,75.8518677-41.2860107,132.3296814c0,59.9093628,13.7263184,102.8396606,40.9643555,128.755127
	c27.2738037,25.9154663,59.1588135,38.8910522,95.5118408,38.8910522
	c26.0583496,0.1430664,47.0766602-4.182251,63.0192871-12.5108643
	c15.9423828-8.3286743,29.5256348-21.1613159,40.8210449-38.4620972
	c0.607666,46.3618164-3.1455078,78.6757202-11.0454102,96.7272339
	c-13.404541,30.7053223-41.7148438,46.0401611-84.9311523,46.0401611c-27.416748,0-47.3984375-6.2554321-60.1955566-18.9093628
	c-8.0427246-8.18573-13.5473633-19.9816895-16.263916-35.0305176h-57.6575928
	c2.8238525,34.7088013,16.6931152,60.1953125,41.4290771,76.4594727
	c24.7358398,16.2284546,55.1552734,24.4498901,91.3654785,24.4498901
	C2195.8046875,814.8175659,2240.0576172,791.8689575,2263.4707031,746.1148071 M2525.4492188,387.1231995
	c3.1098633,0.1429443,6.1125488,0.607666,9.2224121,1.1795959V328.536377
	c-6.1125488-0.607666-10.4375-1.0365906-12.9755859-1.1795959c-2.5378418-0.1429443-4.3251953-0.2859802-5.3618164-0.2859802
	c-22.5195312,0-42.3227539,8.1856995-59.5876465,24.4498901c-17.3007812,16.2641907-28.0244141,30.0976562-32.4926758,41.4289551
	v-58.2650757h-53.6538086v337.2583008h56.7636719V477.9165649c-0.2858887-23.2702637,7.8999023-45.7541809,22.9484863-63.4839172
	c15.3347168-18.3374329,37.2468262-27.5597534,65.8789062-27.5597534
	C2519.4797363,386.8014221,2522.6252441,386.944458,2525.4492188,387.1231995 M2792.6464844,546.2619019
	c0,34.7088623-15.7993164,59.7664185-47.2197266,75.1011963c-18.0515137,9.0792847-37.8544922,13.8692627-57.9790039,13.8692627
	c-16.4072266,0-30.5622559-4.7541504-42.4655762-14.1552734c-11.9033203-9.401062-17.8728027-22.3408813-17.8728027-38.6051025
	c0-21.6259766,8.793457-37.2467041,26.2373047-47.0767212c10.2946777-5.9694824,25.7724609-10.2947388,46.3261719-12.975647
	l34.2800293-4.4681396c10.7236328-1.3583374,21.4472656-3.4315796,32.0280762-6.2554626
	c9.4008789-2.2519836,18.3374023-5.9694824,26.6660156-11.0453491v45.6112366H2792.6464844z M2866.7111816,678.4485474
	c6.7199707-1.1795044,13.5473633-2.8239136,20.1245117-4.789856v-41.8579712
	c-3.5744629,0.7507324-7.0061035,1.1796265-10.1516113,1.5013428c-3.145752,0.2859497-5.9694824,0.4647217-8.5075684,0.4647217
	c-7.8999023,0-12.9755859-1.7872925-15.3703613-5.3618164c-2.3950195-3.574585-3.574707-8.3644409-3.574707-14.1552734V419.937439
	c0-32.0636902-12.2248535-55.584198-36.817627-70.6329956c-24.7358398-15.0488586-56.942627-22.6625977-96.548584-22.6625977
	c-34.1369629,0-64.2346191,8.1856689-90.1499023,24.4498596c-25.9155273,16.2641907-39.3557129,45.2894897-40.392334,87.0401917
	h52.9030762c2.0734863-17.586731,6.5415039-30.8483276,13.5476074-39.6416931
	c12.3679199-16.0854492,33.3862305-24.1281738,62.8762207-24.1281738c25.6293945,0,45.3251953,4.4681702,59.0158691,13.1185913
	c13.7263184,8.6503906,20.5537109,22.805603,20.5537109,42.1796265c0,9.5440369-1.1796875,16.8361511-3.7175293,21.9119873
	c-4.3251953,9.2580566-13.1184082,14.7628784-26.0942383,16.407135l-90.435791,11.3313293
	c-31.7419434,3.8605042-57.371582,14.619873-76.8886719,31.7419739
	c-19.5170898,17.3007812-29.3469238,41.4289551-29.3469238,72.7420044c0,28.4534302,9.9729004,52.2955933,29.8117676,71.2406616
	c19.8029785,18.9450684,45.4680176,28.4533691,76.7453613,28.4533691
	c24.8789062,0.2858887,49.3286133-5.5048218,71.5266113-16.6931763
	c21.6259766-11.0095825,38.2834473-24.1281738,49.7575684-39.3200073
	c1.7873535,13.404541,5.0759277,23.8422852,9.6872559,31.1342773c8.793457,13.8692627,22.9484863,20.8753052,42.4655762,20.8753052
	C2854.2001953,679.4852295,2860.4555664,679.1992798,2866.7111816,678.4485474 M3396.4943848,672.0502319V447.318573
	c0-29.8117065-4.4680176-53.6539001-13.2614746-71.2406616c-16.4072266-32.7785645-47.3984375-49.18573-92.6879883-49.18573
	c-21.3044434,0-40.392334,4.3252258-57.3713379,13.1185913c-16.979248,8.793396-31.7419434,22.197937-44.395752,40.213623
	c-7.6140137-14.7628784-15.942627-25.7724915-25.2006836-33.3862305
	c-16.3713379-13.2615967-38.1401367-19.8029785-64.9851074-19.8029785c-23.6992188,0-44.8605957,6.3984375-63.6269531,19.2310791
	c-10.8664551,7.6138-23.0915527,19.6600037-36.4960938,36.2101746v-47.8274536h-56.0488281V672.050354h56.7636719V493.0728149
	c0-43.5021973,8.793457-73.599884,26.380127-90.1500244c17.5869141-16.5501709,36.9609375-24.8788757,58.4082031-24.8788757
	c23.4133301-0.1429443,39.4987793,7.7567749,48.1491699,23.5562439c5.5046387,10.5806885,8.1855469,27.2738037,8.1855469,50.0793762
	v220.2634583h57.6574707V475.6647034c0-34.8875427,8.0427246-59.7664185,24.1281738-74.6722717
	c15.5136719-14.7628784,36.2102051-22.6625977,57.5144043-22.3409119c16.2641602,0,29.954834,4.1822205,41.1430664,12.6538696
	c11.1884766,8.5074463,16.8361816,23.8422241,16.8361816,46.3261414v234.4187012H3396.4943848z"/>
</svg>
