<?xml version="1.0" encoding="utf-8"?>
<!-- Generator: Adobe Illustrator 26.0.1, SVG Export Plug-In . SVG Version: 6.00 Build 0)  -->
<svg version="1.1" id="image" xmlns="http://www.w3.org/2000/svg" xmlns:xlink="http://www.w3.org/1999/xlink" x="0px" y="0px"
	 viewBox="0 0 1024 1024" style="enable-background:new 0 0 1024 1024;" xml:space="preserve">
<style type="text/css">
	.st0{fill:url(#gradient_00000109744373497797858230000015944933725828044973_);}
	.st1{fill:#FFFFFF;}
</style>
<g id="background" transform="translate(31.329708,31.165678)">
	
		<radialGradient id="gradient_00000165952763636276904280000013470460272524229780_" cx="300.7894592" cy="735.4382935" r="159.145813" gradientTransform="matrix(3.2171752 0 0 -3.2171755 -487.0220947 2846.8684082)" gradientUnits="userSpaceOnUse">
		<stop  offset="0" style="stop-color:#243F8E"/>
		<stop  offset="1" style="stop-color:#24003C"/>
	</radialGradient>
	<path id="gradient" style="fill:url(#gradient_00000165952763636276904280000013470460272524229780_);" d="M6.2999558-31.165678
		h948.7407227c20.7822266,0,37.6296387,16.8472214,37.6296387,37.6295586v948.7406616
		c0,20.7821655-16.847229,37.6298218-37.6295776,37.6298218h-0.000061H6.2999558
		c-20.7823334,0-37.6296654-16.8474731-37.6296654-37.6298218c0,0,0,0,0.0000534,0V6.4638791
		C-31.3295994-14.3184557-14.4823236-31.165678,6.2999558-31.165678z"/>
</g>
<path id="symbol" class="st1" d="M433.771637,654.5791016h-92.1904602C353.7177124,706.1340942,403.4471741,768,507.1656189,768
	c37.5252991,0,70.9937439-9.2629395,98.4784851-23.7659912V634.7008057
	c-14.2663574,43.8809814-55.3074951,65.3818359-93.6441345,65.3818359c-9.7024536,0-27.2818604-2.434021-43.6780396-11.5280151
	C453.7850952,681.2862549,441.0400391,669.7581787,433.771637,654.5791016 M611.4926147,434.9379883
	c-0.6085205,28.4989014-10.9194946,53.3805237-28.4989624,70.9599609
	c-17.5794067,18.1879272-41.2439575,28.5327148-70.9599609,28.5327148c-57.6062927,0-99.4588318-44.2865906-99.4588318-102.5014038
	v-0.60849c0-59.4319153,45.5036316-101.2843628,99.4588318-101.2843628c34.5841064,0,59.4319458,13.3535767,75.2195435,33.3670349
	C603.6156616,382.7744751,611.4926147,409.4816895,611.4926147,434.9379883 M690.4985352,605.7624512
	c0.2703857-5.8147583,0.4395142-40.1621704,0.4395142-46.4840088V265.7024536h-80.053894v44.8950806
	C592.0877075,277.8389893,550.84375,256,502.9060669,256c-92.1904602,0-169.8440857,69.1343689-169.8440857,177.7210083
	c0,102.5014648,74.0025024,175.2869263,169.8440857,175.2869263c56.4230957,0,91.5819092-29.7159424,107.9780884-59.4318848
	v56.1864624h79.6143799V605.7624512z"/>
</svg>
