<?xml version="1.0" encoding="utf-8"?>
<!-- Generator: Adobe Illustrator 26.0.1, SVG Export Plug-In . SVG Version: 6.00 Build 0)  -->
<svg version="1.1" id="Слой_1" xmlns="http://www.w3.org/2000/svg" xmlns:xlink="http://www.w3.org/1999/xlink" x="0px" y="0px"
	 viewBox="0 0 1024 302.817688" style="enable-background:new 0 0 1024 302.817688;" xml:space="preserve">
<style type="text/css">
	.st0{fill:#24408E;}
</style>
<path class="st0" d="M112.4194412,168.5397949c0,17.3544312-7.8997726,29.883194-23.6098557,37.5505829
	c-9.0257111,4.5396576-18.9272156,6.9346313-28.9895668,6.9346313c-8.2035751,0-15.2811584-2.3770752-21.2328072-7.0776215
	c-5.9515953-4.700531-9.0078716-11.1704559-9.0078716-19.3025513c0-10.7236328,4.396677-18.6233673,13.1900806-23.5383759
	c5.2188606-2.9847412,12.8862228-5.1473541,23.1630363-6.4878082l17.1399384-2.2340851
	c5.361824-0.6791687,10.7236404-1.7157898,16.0139542-3.1277313c4.700531-1.1259918,9.1687164-2.9847412,13.3330383-5.5226593
	v22.8056183H112.4194412z M149.3802185,234.6331177c3.3600922-0.5897675,6.7737885-1.4119568,10.0623627-2.394928v-20.9289856
	c-1.7872772,0.375351-3.5030365,0.5898132-5.0579529,0.7506561c-1.5728149,0.1429901-2.9847717,0.2323608-4.2537231,0.2323608
	c-3.8784027,0-6.4163055-0.8936462-7.5959167-2.6809082c-1.1795959-1.7872772-1.787262-4.1822205-1.787262-7.0776215v-97.1561356
	c0-15.9424744-6.1125031-27.7205887-18.4088898-35.3164978c-12.3679504-7.5244331-28.4712448-11.3313065-48.2742538-11.3313065
	c-17.0684319,0-32.1172905,4.0928459-45.0750198,12.2249374S9.3116751,93.5994339,8.7934055,114.4747925H35.245018
	c1.0365944-8.7933807,3.2706871-15.4241714,6.7737808-19.8208466c6.1839485-8.0427246,16.693119-12.0640945,31.438118-12.0640945
	c12.8147659,0,22.6626053,2.2340927,29.5078888,6.559288c6.863121,4.3251953,10.2768173,11.4028091,10.2768173,21.0898285
	c0,4.7720108-0.5897751,8.4180603-1.8587799,10.955986c-2.2340851,4.6290283-6.6307678,7.3814468-13.118576,8.2035751
	l-45.1465225,5.6656494c-15.8709869,1.9302673-28.6857033,7.2205658-38.444252,15.8709869
	C4.915,159.585556,0,171.6496582,0,187.3061829c0,14.2266998,4.8434935,26.1478119,14.7628899,35.6203308
	c9.9015064,9.4725189,22.7162209,14.2266693,38.3727455,14.2266693c12.4393997,0.1429596,24.6643448-2.7524109,35.7633438-8.3465881
	c10.8129807-5.504776,19.1595612-12.0640869,24.8788605-19.6599884c0.9651413,6.7022705,2.6093979,11.9211273,4.9150009,15.5671234
	c4.3966751,6.9346313,11.4743195,10.4376678,21.2328033,10.4376678
	C143.1247711,235.1514435,146.2525024,235.0084839,149.3802185,234.6331177 M188.056778,231.4339447h28.381897V0h-28.381897
	V231.4339447z M259.7264709,231.4339447h28.381897V0h-28.381897V231.4339447z M440.7235107,146.4133759
	c0,13.8513641-2.305542,25.9333191-6.9346313,36.3710022c-8.2750854,18.4089203-22.5018005,27.5597382-42.7694092,27.5597382
	c-12.8862915,0-23.2524414-4.9864655-30.9197998-14.905838c-7.6852722-9.901474-11.5458374-24.3605347-11.5458374-43.377121
	c0-16.2462921,1.9302979-29.275528,5.8086548-39.2663803c7.309967-18.6948853,20.8574219-28.0244217,40.7676697-28.0244217
	c13.2615356,0,24.2175293,5.0758514,32.7786255,15.1203384
	C436.4697876,109.9708862,440.7950745,125.4843979,440.7235107,146.4133759 M457.4881287,268.4662476
	c6.3269043-12.3679504,9.4725342-29.2933807,9.4725342-50.7406769V64.3060913h-26.1657104v21.3042831
	c-5.5048218-7.0776062-10.9559937-12.4394302-16.3178101-16.1033173c-9.8299866-6.5592842-21.3935852-9.7585182-34.4228821-9.829998
	c-19.4455261,0-36.0671387,7.8997459-49.8470764,23.7707329c-13.7799072,15.8709869-20.6429749,37.9259262-20.6429749,66.1648483
	c0,29.9546661,6.8631897,51.4198303,20.4822083,64.3775635c13.6368713,12.9577179,29.5793152,19.4455261,47.7558594,19.4455261
	c13.0291748,0.0715179,23.5383606-2.0911255,31.509613-6.2554474c7.971283-4.1643219,14.7629089-10.580658,20.4106445-19.2310486
	c0.3038025,23.1809082-1.5728149,39.3378601-5.5227356,48.3636322
	c-6.7022705,15.3526611-20.8574219,23.0200806-42.4656067,23.0200806c-13.7083435,0-23.6992493-3.1277466-30.0977173-9.4546814
	c-4.0213623-4.0928955-6.7737427-9.9908752-8.1320801-17.5152588h-28.8287048
	c1.4118958,17.3544006,8.3465271,30.0976562,20.7145386,38.2297363
	c12.3678894,8.1142273,27.5776062,12.2249451,45.6826782,12.2249451
	C423.6550598,302.817627,445.7815247,291.3432922,457.4881287,268.4662476 M588.477417,88.9704285
	c1.5549316,0.0714798,3.0562744,0.303833,4.6112061,0.5898056V59.6770325
	c-3.0562744-0.303833-5.218811-0.5182953-6.487854-0.5898018c-1.2689819-0.0714798-2.1625977-0.1429863-2.6809082-0.1429863
	c-11.2597656,0-21.1613159,4.0928421-29.7937622,12.2249374c-8.6504517,8.1320953-14.0122681,15.0488358-16.2463989,20.7144852
	V62.7511177h-26.8269653v168.6291656h28.381897v-97.0131683c-0.1430054-11.6351318,3.9499512-22.8770905,11.4743042-31.7419434
	c7.6673584-9.1687164,18.623291-13.7798843,32.9393921-13.7798843
	C585.4926147,88.8095551,587.0653687,88.8810654,588.477417,88.9704285 M722.0760498,168.5397949
	c0,17.3544312-7.8997192,29.883194-23.6099243,37.5505829c-9.0256958,4.5396576-18.9272461,6.9346313-28.989502,6.9346313
	c-8.2036133,0-15.281189-2.3770752-21.2327881-7.0776215c-5.9516602-4.700531-8.9364014-11.1704559-8.9364014-19.3025513
	c0-10.8130035,4.3967285-18.6233673,13.1186523-23.5383759c5.1473389-2.9847412,12.8862915-5.1473541,23.1630859-6.4878082
	l17.1400146-2.2340851c5.3618164-0.6791687,10.7236328-1.7157898,16.0139771-3.1277313
	c4.7005615-1.1259918,9.1687012-2.9847412,13.3330688-5.5226593v22.8056183H722.0760498z M759.1082764,234.6331177
	c3.3601074-0.5897675,6.7737427-1.4119568,10.0623779-2.394928v-20.9289856
	c-1.7872925,0.375351-3.5031128,0.5898132-5.0759277,0.7506561c-1.5728149,0.1429901-2.9846802,0.2323608-4.2537231,0.2323608
	c-3.9498901,0-6.487793-0.8936462-7.6852417-2.6809082c-1.1974487-1.7872772-1.7872925-4.1822205-1.7872925-7.0776215v-97.1561356
	c0-16.0318375-6.1124268-27.792099-18.4088745-35.3164978c-12.3678589-7.5244331-28.4712524-11.3313065-48.274231-11.3313065
	c-17.0684204,0-32.1172485,4.0928459-45.0749512,12.2249374c-12.9577637,8.1320953-19.6779175,22.6447449-20.196167,43.5201035
	h26.4515991c1.0366211-8.7933807,3.270752-15.4241714,6.7737427-19.8208466
	c6.18396-8.0427246,16.6931763-12.0640945,31.4381714-12.0640945c12.8146973,0,22.6625977,2.2340927,29.5078735,6.559288
	c6.8631592,4.3251953,10.2767944,11.4028091,10.2767944,21.0898285c0,4.7720108-0.5897827,8.4180603-1.8587036,10.955986
	c-2.1626587,4.6290283-6.5592651,7.3814468-13.0470581,8.2035751l-45.2179565,5.6656494
	c-15.8710327,1.9302673-28.68573,7.3099365-38.4442749,15.8709869c-9.7585449,8.6503906-14.673584,20.7144928-14.673584,36.3710175
	c0,14.2266998,4.9864502,26.1478119,14.9059448,35.6203308c9.9014282,9.4725189,22.7340698,14.2266693,38.3726807,14.2266693
	c12.4394531,0.1429596,24.6643677-2.7524109,35.7633667-8.3465881c10.8129272-5.504776,19.1417236-12.0640869,24.8787842-19.6599884
	c0.8936157,6.7022705,2.5379028,11.9211273,4.8435669,15.5671234c4.3967285,6.9346313,11.4742432,10.4376678,21.2327881,10.4376678
	C752.8528442,235.1514435,755.9805298,235.0084839,759.1082764,234.6331177 M1024,231.4339447V119.0681229
	c0-14.9058456-2.2340698-26.8269501-6.6307983-35.6203308c-8.2036743-16.3892899-23.6992798-24.5928612-46.3439941-24.5928612
	c-10.6521606,0-20.196167,2.1626129-28.68573,6.5592842c-8.489502,4.3967056-15.8709717,11.0989761-22.197876,20.1068192
	c-3.8068848-7.3814468-7.9712524-12.8862457-12.6002197-16.6931229c-8.18573-6.6307907-19.0701904-9.901474-32.4926147-9.901474
	c-11.8496094,0-22.4302368,3.1992035-31.8134155,9.6155319c-5.4332886,3.8069-11.5458374,9.8300018-18.2481079,18.1050797
	V62.7333374h-28.0244141v168.7006683h28.381897v-89.4887543c0-21.7511139,4.3967285-36.799942,13.1900635-45.0750275
	s18.4804688-12.4394302,29.2041016-12.4394302c11.706604-0.0714722,19.7493286,3.8783798,24.0744629,11.7781219
	c2.7523804,5.2903442,4.0928345,13.6369019,4.0928345,25.0396805v110.1317291h28.8287354v-98.1391449
	c0-17.4437714,4.0213623-29.8832016,12.0640869-37.3361206c7.7568359-7.3814468,18.1051025-11.3313065,28.7572632-11.1704559
	c8.1320801,0,14.977356,2.0911026,20.5715332,6.3269348c5.5941772,4.2537155,8.4180908,11.9211044,8.4180908,23.163063v117.209343
	H1024z"/>
</svg>
